<svg height="512" viewBox="0 0 58 59" width="512" xmlns="http://www.w3.org/2000/svg"><g id="024---Dungeon" fill="none"><path id="Shape" d="m24 6h14c4.9705627 0 9 4.0294373 9 9v43h-36v-39c0-7.1797017 5.8202983-13 13-13z" fill="#393f4a"/><path id="Shape" d="m5 47h8c.5522847 0 1 .4477153 1 1v9c0 .5522847-.4477153 1-1 1h-12c-.55228475 0-1-.4477153-1-1v-5c0-2.7614237 2.23857625-5 5-5z" fill="#a59078"/><rect id="Rectangle-path" fill="#5f5346" height="5" rx="1" width="6" x="8" y="42"/><rect id="Rectangle-path" fill="#7f6e5d" height="8" rx="2" width="8" x="6" y="34"/><rect id="Rectangle-path" fill="#7f6e5d" height="8" rx="2" width="8" x="6" y="21"/><path id="Shape" d="m18.692 12.014-2.345 2.531c-.745921.8050312-2.0012299.8585815-2.813.12l-2.976-2.709c-.74458546-.7459979-.74458546-1.9540021 0-2.7l2.634-2.634c.375096-.37524801.8839266-.58607293 1.4145-.58607293s1.039404.21082492 1.4145.58607293l2.618 2.618c.7604325.7601026.7838432 1.9854051.053 2.774z" fill="#7f6e5d"/><rect id="Rectangle-path" fill="#5f5346" height="5" rx="1" width="6" x="8" y="29"/><path id="Shape" d="m31.151 10h-4.3c-.5210601.0064803-.9625446-.38230257-1.022-.9l-.822-8c-.0251894-.28476279.071356-.56687879.2657336-.77650161.1943775-.20962283.4684151-.32715519.7542664-.32349839h5.946c.2861971-.00422825.5607742.1130551.7555971.32274704s.2916313.49213861.2664029.77725296l-.822 8c-.0594554.51769743-.5009399.9064803-1.022.9z" fill="#7f6e5d"/><path id="Shape" d="m8.489 19.658 2.111-5.8c.1134443-.3137589.3758936-.550274.6997229-.6305788.3238292-.0803048.6663777.0061798.9132771.2305788l2.368 2.156c.2599279.2362541.3768447.59156.308.936l-.728 3.65c-.0951286.4660347-.5053558.8005727-.981.8h-3.752c-.32613715-.0002283-.63167281-.1594819-.81864677-.4267013-.18697396-.2672195-.23189224-.6088276-.12035323-.9152987z" fill="#5f5346"/><path id="Shape" d="m23.873 2.966-6.6 3c-.2987355.13572811-.5118785.4093743-.5703467.73224655-.0584682.32287226.0451784.65388516.2773467.88575345l2.565 2.565c.27669.2766582.6893165.3665295 1.056.23l4.433-1.647c.4267896-.15884208.6923607-.58597591.646-1.039l-.4-3.916c-.0322449-.32028141-.2166973-.60545768-.4955855-.76620988-.2788882-.16075221-.6181083-.17742268-.9114145-.04479012z" fill="#5f5346"/><path id="Shape" d="m45 47h12c.5522847 0 1 .4477153 1 1v9c0 .5522847-.4477153 1-1 1h-8c-2.7614237 0-5-2.2385763-5-5v-5c0-.5522847.4477153-1 1-1z" fill="#a59078" transform="matrix(-1 0 0 -1 102 105)"/><rect id="Rectangle-path" fill="#5f5346" height="5" rx="1" transform="matrix(-1 0 0 -1 94 89)" width="6" x="44" y="42"/><rect id="Rectangle-path" fill="#7f6e5d" height="8" rx="2" transform="matrix(-1 0 0 -1 96 76)" width="8" x="44" y="34"/><rect id="Rectangle-path" fill="#7f6e5d" height="8" rx="2" transform="matrix(-1 0 0 -1 96 50)" width="8" x="44" y="21"/><path id="Shape" d="m39.308 12.014 2.345 2.531c.745921.8050312 2.0012299.8585815 2.813.12l2.976-2.709c.7445855-.7459979.7445855-1.9540021 0-2.7l-2.634-2.633c-.375096-.37524801-.8839266-.58607293-1.4145-.58607293s-1.039404.21082492-1.4145.58607293l-2.618 2.618c-.7597938.7599809-.7831987 1.9845411-.053 2.773z" fill="#7f6e5d"/><rect id="Rectangle-path" fill="#5f5346" height="5" rx="1" transform="matrix(-1 0 0 -1 94 63)" width="6" x="44" y="29"/><path id="Shape" d="m49.511 19.658-2.111-5.8c-.1134443-.3137589-.3758936-.550274-.6997229-.6305788-.3238292-.0803048-.6663777.0061798-.9132771.2305788l-2.368 2.156c-.2599279.2362541-.3768447.59156-.308.936l.728 3.641c.0951286.4660347.5053558.8005727.981.8h3.752c.3238786-.0012709.6270849-.159322.8136043-.424104.1865193-.264782.2332506-.6035007.1253957-.908896z" fill="#5f5346"/><path id="Shape" d="m34.127 2.966 6.6 3c.2987355.13572811.5118785.4093743.5703467.73224655.0584682.32287226-.0451784.65388516-.2773467.88575345l-2.565 2.565c-.27669.2766582-.6893165.3665295-1.056.23l-4.434-1.65c-.4267896-.15884208-.6923607-.58597591-.646-1.039l.4-3.916c.0330091-.32001259.2179622-.60460185.4969919-.76472691.2790298-.16012505.6180569-.17622891.9110081-.04327309z" fill="#5f5346"/><g fill="#a5a5a4"><path id="Shape" d="m29 59c-.5522847 0-1-.4477153-1-1v-19c0-.5522847.4477153-1 1-1s1 .4477153 1 1v19c0 .5522847-.4477153 1-1 1z"/><path id="Shape" d="m29 40c-.5522847 0-1-.4477153-1-1v-25c0-.5522847.4477153-1 1-1s1 .4477153 1 1v25c0 .5522847-.4477153 1-1 1z"/><path id="Shape" d="m40 54h-22c-.5522847 0-1-.4477153-1-1s.4477153-1 1-1h22c.5522847 0 1 .4477153 1 1s-.4477153 1-1 1z"/><path id="Shape" d="m40 27h-22c-.5522847 0-1-.4477153-1-1s.4477153-1 1-1h22c.5522847 0 1 .4477153 1 1s-.4477153 1-1 1z"/><path id="Shape" d="m28 40h-10c-.5522847 0-1-.4477153-1-1s.4477153-1 1-1h10c.5522847 0 1 .4477153 1 1s-.4477153 1-1 1z"/></g><path id="Shape" d="m30 35h10v8h-10c-1.1045695 0-2-.8954305-2-2v-4c0-1.1045695.8954305-2 2-2z" fill="#7f8c8d"/><path id="Shape" d="m36 40h-3c-.5522847 0-1-.4477153-1-1s.4477153-1 1-1h3c.5522847 0 1 .4477153 1 1s-.4477153 1-1 1z" fill="#393f4a"/><path id="Shape" d="m40 59h-22c-.5522847 0-1-.4477153-1-1v-33c0-6.627417 5.372583-12 12-12s12 5.372583 12 12v33c0 .5522847-.4477153 1-1 1zm-21-2h20v-32c0-5.5228475-4.4771525-10-10-10s-10 4.4771525-10 10z" fill="#bdc3c7"/></g></svg>