<svg height="451pt" viewBox="0 -11 451.792 451" width="451pt" xmlns="http://www.w3.org/2000/svg"><path d="m0 310.164062h451.792969v120.078126h-451.792969zm0 0" fill="#4e7693"/><path d="m413.496094 239.914062h-375.199219l11.8125-77.484374h351.574219zm0 0" fill="#4e7693"/><path d="m413.496094 239.914062h-375.199219l-38.296875 70.25h451.792969zm0 0" fill="#e3f4ff"/><path d="m141.121094 269.042969h-34.457032c-3.867187 0-7-3.132813-7-7 0-3.863281 3.132813-7 7-7h34.453126c3.863281 0 7 3.136719 7 7 0 3.867187-3.136719 7-7 7zm80.773437-7c0-3.863281-3.132812-7-7-7h-34.464843c-3.867188 0-7 3.136719-7 7 0 3.867187 3.132812 7 7 7h34.453124c1.859376.003906 3.644532-.730469 4.957032-2.046875 1.316406-1.3125 2.054687-3.09375 2.054687-4.953125zm73.761719 0c0-3.863281-3.132812-7-7-7h-34.46875c-3.867188 0-7 3.136719-7 7 0 3.867187 3.132812 7 7 7h34.457031c3.867188 0 7-3.132813 7-7zm73.757812 0c0-3.863281-3.132812-7-7-7h-34.457031c-3.867187 0-7 3.136719-7 7 0 3.867187 3.132813 7 7 7h34.449219c3.867188 0 7-3.132813 7-7zm-254.167968 24.078125c0-3.867188-3.132813-7-7-7h-34.449219c-3.867187 0-7 3.132812-7 7 0 3.863281 3.132813 7 7 7h34.449219c3.867187 0 7-3.136719 7-7zm73.765625 0c0-3.867188-3.132813-7-7-7h-34.457031c-3.863282 0-7 3.132812-7 7 0 3.863281 3.136718 7 7 7h34.457031c3.867187 0 7-3.136719 7-7zm73.761719 0c0-3.867188-3.136719-7-7-7h-34.457032c-3.867187 0-7 3.132812-7 7 0 3.863281 3.132813 7 7 7h34.460938c3.863281 0 7-3.136719 7-7zm73.757812 0c0-3.867188-3.132812-7-7-7h-34.433594c-3.867187 0-7 3.132812-7 7 0 3.863281 3.132813 7 7 7h34.4375c3.867188 0 7-3.136719 7-7zm73.765625 0c0-3.867188-3.136719-7-7-7h-34.453125c-3.867188 0-7 3.132812-7 7 0 3.863281 3.132812 7 7 7h34.457031c3.863281-.003906 6.996094-3.136719 6.996094-7zm0 0" fill="#bbd8ef"/><path d="m431.570312 310.164062h20.222657v120.078126h-20.222657zm0 0" fill="#2c5168"/><path d="m401.683594 162.429688h-20.21875l11.8125 77.484374h20.21875zm0 0" fill="#2c5168"/><path d="m413.496094 239.914062h-20.21875l38.292968 70.25h20.222657zm0 0" fill="#bbd8ef"/><path d="m289.117188 352.773438h-126.441407l-17.125-42.609376h160.6875zm0 0" fill="#2c5168"/><path d="m265.617188 129.136719h114.933593v33.292969h-114.933593zm0 0" fill="#2c5168"/><path d="m369.964844 187.085938h-93.769532l-2.910156 28.171874h99.59375zm0 0" fill="#43a3f9"/><path d="m245.414062.394531h155.332032v79.007813h-155.332032zm0 0" fill="#4e7693"/><path d="m389.65625.394531h11.085938v79.007813h-11.085938zm0 0" fill="#2c5168"/><path d="m267.238281 20.304688h111.6875v39.191406h-111.6875zm0 0" fill="#43a3f9"/><path d="m302.230469 79.40625h41.707031v49.730469h-41.707031zm0 0" fill="#4e7693"/><path d="m302.230469 79.40625h41.707031v10.546875h-41.707031zm0 0" fill="#2c5168"/><path d="m334.601562 79.40625h9.335938v49.730469h-9.335938zm0 0" fill="#2c5168"/><path d="m132.480469 269.042969h-34.457031c-3.867188 0-7-3.132813-7-7 0-3.863281 3.132812-7 7-7h34.453124c3.867188 0 7 3.136719 7 7 0 3.867187-3.132812 7-7 7zm80.761719-7c0-3.863281-3.132813-7-7-7h-34.453126c-3.867187 0-7 3.136719-7 7 0 3.867187 3.132813 7 7 7h34.453126c3.867187 0 7-3.132813 7-7zm73.761718 0c0-3.863281-3.132812-7-7-7h-34.457031c-3.863281 0-7 3.136719-7 7 0 3.867187 3.136719 7 7 7h34.457031c3.867188 0 7-3.132813 7-7zm73.761719 0c0-3.863281-3.136719-7-7-7h-34.453125c-3.867188 0-7 3.136719-7 7 0 3.867187 3.132812 7 7 7h34.453125c3.867187.003906 7.003906-3.132813 7.003906-7zm-254.15625 24.078125c0-3.867188-3.136719-7-7-7h-34.457031c-3.867188 0-7 3.132812-7 7 0 3.863281 3.132812 7 7 7h34.453125c3.867187 0 7.003906-3.132813 7.003906-7zm73.761719 0c0-3.867188-3.132813-7-7-7h-34.457032c-3.863281 0-7 3.132812-7 7 0 3.863281 3.136719 7 7 7h34.457032c3.867187 0 7-3.136719 7-7zm73.761718 0c0-3.867188-3.136718-7-7-7h-34.4375c-3.867187 0-7 3.132812-7 7 0 3.863281 3.132813 7 7 7h34.441407c3.867187 0 7-3.136719 7-7zm73.757813 0c0-3.867188-3.132813-7-7-7h-34.445313c-3.867187 0-7 3.132812-7 7 0 3.863281 3.132813 7 7 7h34.449219c3.867188 0 7-3.136719 7-7zm73.765625 0c0-3.867188-3.132812-7-7-7h-34.453125c-3.863281 0-7 3.132812-7 7 0 3.863281 3.136719 7 7 7h34.457031c3.867188 0 7-3.136719 7-7zm0 0" fill="#4e7693"/><g fill="#2c5168"><path d="m131.097656 262.042969c0 3.867187-3.136718 7-7 7h8.398438c3.867187 0 7-3.132813 7-7 0-3.863281-3.132813-7-7-7h-8.398438c3.863282 0 7 3.136719 7 7zm0 0"/><path d="m352.382812 262.042969c0 3.867187-3.132812 7-7 7h8.402344c3.863282 0 7-3.132813 7-7 0-3.863281-3.136718-7-7-7h-8.402344c3.867188 0 7 3.136719 7 7zm0 0"/><path d="m204.859375 262.042969c0 3.867187-3.132813 7-7 7h8.402344c3.863281 0 7-3.132813 7-7 0-3.863281-3.136719-7-7-7h-8.402344c3.867187 0 7 3.136719 7 7zm0 0"/><path d="m278.621094 262.042969c0 3.867187-3.136719 7-7 7h8.398437c3.867188 0 7-3.132813 7-7 0-3.863281-3.132812-7-7-7h-8.398437c3.863281 0 7 3.136719 7 7zm0 0"/><path d="m99.609375 279.105469h-8.402344c3.867188 0 7 3.132812 7 7 0 3.863281-3.132812 7-7 7h8.402344c3.863281 0 7-3.136719 7-7 0-3.867188-3.136719-7-7-7zm0 0"/><path d="m173.371094 279.105469h-8.398438c3.867188 0 7 3.132812 7 7 0 3.863281-3.132812 7-7 7h8.398438c3.867187 0 7-3.136719 7-7 0-3.867188-3.132813-7-7-7zm0 0"/><path d="m320.894531 279.105469h-8.398437c3.867187 0 7 3.132812 7 7 0 3.863281-3.132813 7-7 7h8.398437c3.867188 0 7-3.136719 7-7 0-3.867188-3.132812-7-7-7zm0 0"/><path d="m394.660156 279.105469h-8.398437c3.863281 0 7 3.132812 7 7 0 3.863281-3.136719 7-7 7h8.398437c3.867188 0 7-3.136719 7-7 0-3.867188-3.132812-7-7-7zm0 0"/><path d="m247.136719 279.105469h-8.402344c3.867187 0 7 3.132812 7 7 0 3.863281-3.132813 7-7 7h8.402344c3.867187 0 7-3.136719 7-7 0-3.867188-3.132813-7-7-7zm0 0"/></g><path d="m53.914062 117.199219h45.78125v-22.890625c0-12.640625-10.246093-22.886719-22.886718-22.886719s-22.886719 10.246094-22.886719 22.886719zm0 0" fill="#e3f4ff"/><path d="m53.914062 117.199219h45.78125v-22.890625c0-12.640625-10.246093-22.886719-22.886718-22.886719s-22.886719 10.246094-22.886719 22.886719zm0 0" fill="#e3f4ff"/><path d="m99.695312 94.308594v109.410156h119.078126v-109.296875c0-12.703125-10.300782-23-23-23h-118.96875c12.640624-.003906 22.890624 10.242187 22.890624 22.886719zm0 0" fill="#e3f4ff"/><path d="m89.148438 94.308594v22.890625h10.546874v-22.890625c.03125-7.007813-3.164062-13.640625-8.664062-17.984375-5.496094-4.347657-12.6875-5.921875-19.5-4.273438 10.320312 2.441407 17.613281 11.652344 17.617188 22.257813zm0 0" fill="#bbd8ef"/><path d="m195.773438 71.421875h-11.9375c12.703124 0 23 10.296875 23 23v109.296875h11.941406v-109.296875c0-12.707031-10.300782-23.003906-23.003906-23zm0 0" fill="#bbd8ef"/><path d="m234.390625 210.703125h-150.316406c-3.863281 0-7-3.132813-7-7 0-3.863281 3.136719-7 7-7h150.316406c3.867187 0 7 3.136719 7 7 0 3.867187-3.132813 7-7 7zm0 0" fill="#2c5168"/><path d="m364.175781 59.5 14.75-30.539062v-8.65625h-4.929687l-18.929688 39.195312zm0 0" fill="#94ccf7"/><path d="m331.207031 59.5h13.746094l18.925781-39.195312h-13.742187zm0 0" fill="#94ccf7"/><path d="m278.53125 20.304688-11.292969 23.382812v15.8125h10.578125l18.925782-39.195312zm0 0" fill="#94ccf7"/><path d="m321.015625 20.304688h-9.109375l-18.921875 39.195312h9.105469zm0 0" fill="#94ccf7"/><path d="m363.777344 215.257812 7.496094-15.527343-1.308594-12.644531h-.644532l-13.605468 28.171874zm0 0" fill="#94ccf7"/><path d="m334.601562 215.257812h12.160157l13.605469-28.171874h-12.164063zm0 0" fill="#94ccf7"/><path d="m322.433594 187.085938h-8.0625l-13.601563 28.171874h8.058594zm0 0" fill="#94ccf7"/><path d="m284.832031 187.085938-10.988281 22.753906-.558594 5.417968h14.0625l13.605469-28.171874zm0 0" fill="#94ccf7"/></svg>